<svg width="255" height="126" viewBox="0 0 255 126" fill="none" xmlns="http://www.w3.org/2000/svg">
<g opacity="0.1">
<path d="M69.0763 40.206L80.2322 29.8768L80.6677 29.5726L82.8537 28.0354L93.8451 20.3058" stroke="url(#paint0_linear_785_4768)" stroke-width="1.08501" stroke-linecap="round" stroke-linejoin="round"/>
<path d="M26.8628 137.509L27.6246 122.851L33.0748 108.952L38.7793 95.9233L45.0613 83.6286L53.4843 73.2143L63.6872 65.4651L68.7217 65.5262L74.2822 64.5367L81.8879 57.9189L82.958 56.9846L89.5033 44.8005L96.7051 30.3701L105.943 18.2281L116.76 13.7562" stroke="url(#paint1_linear_785_4768)" stroke-width="1.08501" stroke-linecap="round" stroke-linejoin="round"/>
<path d="M72.4883 57.0704L79.4096 44.6139L87.3743 30.3189L87.4105 30.2469L97.0352 19.8203L98.3127 18.441L99.0552 18.201L99.5328 18.1079L102.537 17.1233L111.347 14.2308L113.79 13.655" stroke="url(#paint2_linear_785_4768)" stroke-width="1.08501" stroke-linecap="round" stroke-linejoin="round"/>
<path d="M158.417 100.422L171.525 98.7501L188.921 95.4588L209.033 91.5719L225.846 89.0996L237.955 87.8039L243.316 87.8541" stroke="url(#paint3_linear_785_4768)" stroke-width="1.08501" stroke-linecap="round" stroke-linejoin="round"/>
<path d="M200.606 151.018L200.455 151.305L194.567 162.653L190.303 174.827L188.049 177.403L184.8 188.118L183.825 191.324L180.18 195.667L173.406 199.181L162.996 200.86L149.287 199.701L133.716 195.018L118.738 186.517L106.892 176.526L108.986 163.492L111.048 150.788L113.127 138.165L115.306 125.409L117.618 113.714L119.675 103.732L121.645 93.1665L123.736 81.7095L125.744 71.5219L127.699 61.9615L129.874 51.0705L132.315 38.8929L127.498 32.03L122.081 26.2593L116.422 21.9834L110.922 19.324L105.943 18.2284L101.691 18.15L92.0526 29.8279L91.6302 30.3382L91.4943 30.6091L84.0933 45.0118L77.4577 57.5166L76.5064 58.3871L68.7223 65.5265L67.6381 66.6145L59.8982 74.3432L54.4661 86.5779L49.4459 98.9305L42.602 111.178L35.3692 124.835L32.9945 139.808L34.9084 154.217L39.0921 167.337L45.7116 170.612L50.3165 182.627L58.1365 186.004L69.7313 186.786L82.7772 185.626L94.4543 185.78L104.635 190.589L115.765 200.063L129.41 209.885L143.965 215.5L157.246 217.198L167.77 215.556L174.902 211.491L180.18 195.667L184.137 180.207L188.049 177.403L191.85 164.07L192.42 162.793L197.468 151.549L200.606 151.018ZM200.606 151.018L201.347 150.256L212.225 139.154L212.356 139.02L216.914 139.277L231.198 124.289L239.328 106.08L237.956 87.8039L230.526 71.4284L217.201 59.297L198.172 54.4175L190.67 57.3094L181.045 61.5755L169.664 67.6376L159.031 73.3585L152.244 70.259L146.617 72.065L142.309 70.7954L138.687 66.2585L134.788 59.2095L136.332 46.13L137.4 34.2355L137.004 29.0996L135.468 26.7999L133.824 24.6797L131.127 24.4148L127.525 20.2893L123.803 17.0492L120.15 14.8527L110.922 19.324L102.717 31.0768L95.99 44.8978L89.7192 56.5946L81.6863 64.0697L75.4753 75.5906L73.1626 90.6573L70.3474 103.839L64.1392 115.769L56.6564 129.486L52.7792 144.935L52.6981 159.966L54.7946 173.686L58.1365 186.004L63.3892 195.718L72.2726 197.811L77.1081 204.677L84.6037 207.56L88.5366 211.256L94.6473 214.631L101.343 217.775L102.047 218.08L102.126 218.111L102.232 218.159L102.406 218.231L102.657 218.339L102.981 218.484L103.379 219.319L105.558 219.592L105.932 219.758L106.38 219.948L106.949 220.2L107.737 220.538L108.409 220.825L108.88 221.019L110.763 221.8L113.897 223.093L115.685 223.834L115.775 223.867L115.831 223.894L119.417 225.564L123.822 227.606L129.918 230.432L139.811 233.608L148.577 233.989L155.614 232.074L158.469 230.338L161.519 228.486L166.962 225.179L171.629 220.043L172.815 217.754L176.529 210.561L178.84 206.088L180.722 200.894L182.505 196.919L186.224 190.656L190.87 183.873L191.233 183.395L191.941 182.507L198.886 173.738L199.023 173.563L206.003 162.814L212.945 151.621L213.102 151.366L221.77 139.541L221.918 139.339L222.191 138.965L226.784 132.605L228.191 131.026L233.964 124.535L234.001 124.493L239.822 112.583L242.771 106.544L243.316 87.8541L236.984 70.6631L231.448 65.316L223.607 57.743L217.201 59.297L207.282 62.1816L194.07 66.8718L178.462 73.6332L164.585 79.6682L153.902 83.347L145.874 84.2424L139.053 82.9669L132.84 78.4289L125.744 71.5219L117.006 64.6368L107.323 59.7269L97.9433 57.2681L89.7192 56.5946L82.9586 56.9849L77.4577 57.5166L72.4884 57.0706L63.6878 65.4654L58.5258 63.961L53.2873 61.2799L48.5657 58.0264L45.4977 55.2451L45.5993 54.3265L58.2575 48.7268L69.077 40.2062L74.071 36.1514L80.2329 29.8771L81.5636 29.6705L84.0238 29.9493L87.4105 30.2472L91.6302 30.3382L96.7056 30.3704L102.717 31.0768L109.541 33.2828L116.754 37.3421L123.746 43.4098L129.874 51.0705L134.788 59.2095L133.627 69.7803L138.461 75.914L143.523 78.6073L145.874 84.2424L146.437 92.9881L148.509 100.267L154.837 106.258L167.547 107.044L181.834 107.233L190.716 120.237L191.429 136.597L185.799 152.019L181.02 166.812L177.456 182.572L173.406 199.181L167.77 215.556L159.528 228.658L149.425 229.514L137.367 227.075L129.918 230.432L121.382 225.969L119.748 225.242L118.698 224.464L118.208 224.165L114.524 221.909L110.258 219.291L101.309 214.224L92.779 210.469L84.6037 207.56L82.5908 198.587L82.7772 185.626L84.126 171.751L85.414 158.802L87.3086 145.92L90.093 133.345L93.2114 121.666L95.8763 110.504L97.2936 97.607L98.8361 82.1999L102.496 69.0231L107.323 59.7269L111.922 49.2528L116.754 37.3421L122.081 26.2593L127.525 20.2893" stroke="url(#paint4_linear_785_4768)" stroke-width="1.08501" stroke-linecap="round" stroke-linejoin="round"/>
<path d="M152.483 57.1981L164.487 57.8282L164.571 57.8304L167.807 56.891" stroke="url(#paint5_linear_785_4768)" stroke-width="1.08501" stroke-linecap="round" stroke-linejoin="round"/>
<path d="M152.506 57.2022L164.346 57.9185L164.511 57.8264L168.947 56.5384L179.155 53.5351L184.89 51.8371" stroke="url(#paint6_linear_785_4768)" stroke-width="1.08501" stroke-linecap="round" stroke-linejoin="round"/>
<path d="M106.892 176.526L96.6375 171.478L84.1259 171.751L68.7819 173.837L54.7945 173.686L45.7115 170.612L42.6354 157.08L41.94 142.277L45.553 127.077L53.6089 113.589L60.538 101.83L64.0589 89.121L67.102 75.0539L73.5652 65.5852L74.2826 64.5371L81.6862 64.0697L91.3464 65.4365L102.496 69.0231L113.789 74.7395L123.736 81.7095L131.856 87.6323L139.324 90.8591L146.437 92.9881L154.931 92.8494L166.82 89.9147L183.08 84.5774L202.141 78.3288L218.461 73.9855L230.526 71.4285L236.984 70.6631" stroke="url(#paint7_linear_785_4768)" stroke-width="1.08501" stroke-linecap="round" stroke-linejoin="round"/>
<path d="M72.2727 197.811L69.7314 186.786L68.7821 173.837L68.3902 160.429L69.4717 146.186L72.9875 131.736L78.38 118.673L82.6976 106.856L84.5519 93.4328L86.3206 77.7879L91.3466 65.4364L97.9434 57.2681L103.589 46.1792L109.541 33.2828L116.423 21.9834L123.803 17.0492" stroke="url(#paint8_linear_785_4768)" stroke-width="1.08501" stroke-linecap="round" stroke-linejoin="round"/>
<path d="M152.54 57.2139L163.012 58.7481L165.694 57.9969L166.021 57.9083L171.601 56.3461L182.394 53.3278L184.89 51.837" stroke="url(#paint9_linear_785_4768)" stroke-width="1.08501" stroke-linecap="round" stroke-linejoin="round"/>
<path d="M139.635 33.8582L140.033 35.4373L141.968 43.2094L142.11 43.7854L142.118 44.2668L142.427 58.2L142.309 70.7951L143.523 78.6071" stroke="url(#paint10_linear_785_4768)" stroke-width="1.08501" stroke-linecap="round" stroke-linejoin="round"/>
<path d="M159.031 73.3579L164.585 79.6676L166.82 89.914L171.526 98.7494L181.834 107.233L198.468 106.775L216.146 106.063L229.91 105.942L239.328 106.08L242.771 106.543" stroke="url(#paint11_linear_785_4768)" stroke-width="1.08501" stroke-linecap="round" stroke-linejoin="round"/>
<path d="M152.244 70.2586L159.152 66.3421L166.536 61.8104L181.045 61.5751L194.071 66.8713L202.141 78.3283L209.033 91.5714L216.146 106.063L216.306 122.821L207.683 138.63" stroke="url(#paint12_linear_785_4768)" stroke-width="1.08501" stroke-linecap="round" stroke-linejoin="round"/>
<path d="M138.399 31.4834L139.938 39.2184L139.609 52.8457L138.686 66.2583L138.46 75.9137L139.053 82.9666L139.323 90.8588L139.912 98.6069L142.715 105.182L146.178 114.983L147.036 130.029L144.413 146.681L140.952 162.717L137.499 178.886L133.716 195.017L129.41 209.884L124.601 220.527L119.833 225.16" stroke="url(#paint13_linear_785_4768)" stroke-width="1.08501" stroke-linecap="round" stroke-linejoin="round"/>
<path d="M200.198 50.9215L207.178 50.4064L207.578 50.3783L209.376 51.3069" stroke="url(#paint14_linear_785_4768)" stroke-width="1.08501" stroke-linecap="round" stroke-linejoin="round"/>
<path d="M207.682 138.63L200.604 137.815L191.429 136.597L179.611 134.9L164.551 132.655L147.035 130.029L129.583 127.456L115.305 125.409L104.662 123.792L93.2106 121.666L78.379 118.673L64.1384 115.769L53.6081 113.589L42.6011 111.178L33.0744 108.952L26.1592 107.174L22.998 106.111" stroke="url(#paint15_linear_785_4768)" stroke-width="1.08501" stroke-linecap="round" stroke-linejoin="round"/>
<path d="M23.4345 81.4464L22.9238 74.6174L31.2662 63.4395L31.6268 62.7627L31.8082 62.5776L32.1301 61.8102L45.5993 54.3264L55.2829 50.2444L58.2575 48.7267" stroke="url(#paint16_linear_785_4768)" stroke-width="1.08501" stroke-linecap="round" stroke-linejoin="round"/>
<path d="M143.523 78.6069L150.247 77.3706L159.031 73.3581" stroke="url(#paint17_linear_785_4768)" stroke-width="1.08501" stroke-linecap="round" stroke-linejoin="round"/>
<path d="M131.127 24.4145L134.454 29.1712L132.315 38.8925L136.332 46.1297L139.609 52.8455L142.427 58.1998L145.203 61.6395L148.255 63.0683L151.679 62.8625L159.151 66.3422L169.664 67.6373L178.462 73.6329L183.08 84.577L188.921 95.4584L198.467 106.775L204.01 121.68L200.605 137.815L192.742 151.929L187.63 165.568L184.136 180.207L177.455 182.572L167.28 183.715M167.28 183.715L153.546 182.702L137.499 178.886L121.638 172.018L108.986 163.491L98.5371 158.776L85.4136 158.802L68.3897 160.429L52.6977 159.966L42.6351 157.079L34.9079 154.216L29.9137 151.439L26.863 137.509L24.2462 135.428L23.4547 123.104L23.3313 121.248L26.1596 107.174L29.5798 93.1829L36.5363 80.6606L47.4345 71.4274L53.4844 73.2142L59.8977 74.3428L67.1017 75.0535L75.4749 75.5902L86.3201 77.7876L98.8357 82.1995L111.076 87.9865L121.644 93.1661L131.04 96.3417L139.912 98.6067L148.509 100.267L158.416 100.422L167.546 107.044L176.896 118.495L179.611 134.9L175.613 151.451L171.087 167.228L167.28 183.715ZM167.28 183.715L162.995 200.86L157.246 217.198L149.425 229.514L139.811 233.607" stroke="url(#paint18_linear_785_4768)" stroke-width="1.08501" stroke-linecap="round" stroke-linejoin="round"/>
<path d="M127.525 20.2891L132.11 22.8294L133.824 24.6795" stroke="url(#paint19_linear_785_4768)" stroke-width="1.08501" stroke-linecap="round" stroke-linejoin="round"/>
<path d="M94.6467 214.63L92.7783 210.469L92.8015 200.029L94.4537 185.78L96.637 171.477L98.5369 158.776L100.531 146.655L102.602 135.032L104.662 123.792L107.044 112.99L109.091 101.579L111.076 87.9866L113.788 74.7391L117.006 64.6365L120.274 54.6207L123.745 43.4095L127.497 32.0297L131.127 24.4145" stroke="url(#paint20_linear_785_4768)" stroke-width="1.08501" stroke-linecap="round" stroke-linejoin="round"/>
<path d="M31.8718 62.6245L35.3031 65.1733L40.9815 68.4448L47.4346 71.4277L58.5254 63.9609L67.8113 55.5342L75.317 43.453L84.0234 29.9492L91.3661 23.1491L95.5926 19.2342L98.0165 18.5591L98.246 18.514L99.0549 18.2012L102.636 16.9963L111.347 14.231" stroke="url(#paint21_linear_785_4768)" stroke-width="1.08501" stroke-linecap="round" stroke-linejoin="round"/>
<path d="M151.679 62.8626L155.224 61.7657L158.379 60.6745L161.529 59.9605L164.697 58.9976L165.565 58.7967L177.14 56.0848L178.021 55.8801L178.118 55.8726L184.258 55.4252L196.994 54.4996L198.172 54.4172L204.089 51.9283L207.392 50.4905L209.377 51.3067L225.448 57.8867" stroke="url(#paint22_linear_785_4768)" stroke-width="1.08501" stroke-linecap="round" stroke-linejoin="round"/>
<path d="M137.004 29.0994L138.4 31.4834L139.635 33.8581L140.711 36.146L142.206 40.6704L143.876 44.6243L144.879 46.774L145.088 47.3132L147.248 52.9759L148.642 54.5859L149.698 55.6826L149.963 56.0334L150.961 57.1144L155.224 61.7658L166.536 61.8106L172.934 58.3594L178.021 55.8801L182.394 53.3278L204.088 51.9284L223.607 57.7427L225.448 57.8867L236.984 70.6628" stroke="url(#paint23_linear_785_4768)" stroke-width="1.08501" stroke-linecap="round" stroke-linejoin="round"/>
<path d="M95.5929 19.2339L98.2463 18.5138L98.9421 18.3017" stroke="url(#paint24_linear_785_4768)" stroke-width="1.08501" stroke-linecap="round" stroke-linejoin="round"/>
<path d="M58.2568 48.7266L60.0923 50.6391L63.5575 53.2358L67.8111 55.5341L72.4877 57.0704" stroke="url(#paint25_linear_785_4768)" stroke-width="1.08501" stroke-linecap="round" stroke-linejoin="round"/>
<path d="M135.468 26.7995L134.454 29.1712L137.399 34.2351L139.938 39.2183L142.11 43.7853L144.003 47.6572L144.059 48.3205L145.204 61.6395L146.617 72.0646L150.247 77.3706L153.901 83.3466L154.931 92.8489L158.417 100.422" stroke="url(#paint26_linear_785_4768)" stroke-width="1.08501" stroke-linecap="round" stroke-linejoin="round"/>
<path d="M140.711 36.146L141.622 38.274L142.019 39.4748L142.365 40.3674L143.306 42.6384L144.887 46.1935L145.588 47.7579L146.059 48.8035L146.508 49.5514L146.924 50.1379L147.246 50.7561L149.819 55.7511L150.409 56.091L151.038 56.4495L151.585 56.7641L151.705 56.8325L152.142 57.0864L152.4 57.1902L158.378 60.6746L160.862 59.8956L163.012 58.7482L164.346 57.9184L164.571 57.8304L167.807 56.8911L168.947 56.5384L179.108 53.533L184.89 51.8371L200.198 50.9214L207.391 50.4905L207.578 50.3782L225.448 57.8867L231.448 65.3158" stroke="url(#paint27_linear_785_4768)" stroke-width="1.08501" stroke-linecap="round" stroke-linejoin="round"/>
<path d="M141.622 38.2742L142.375 40.2014" stroke="url(#paint28_linear_785_4768)" stroke-width="1.08501" stroke-linecap="round" stroke-linejoin="round"/>
<path d="M22.9238 74.6169L24.4554 75.6681L29.318 77.8417L36.5367 80.6604L45.0619 83.6283L54.466 86.5773L64.059 89.1204L73.1626 90.6567L84.5517 93.4322L97.2935 97.6064L109.092 101.579L119.675 103.732L130.841 104.244L142.716 105.182L154.837 106.258L162.005 116.632L164.551 132.654L161.505 149.75L157.383 166.04L153.547 182.702L149.287 199.701L143.965 215.499L137.367 227.074" stroke="url(#paint29_linear_785_4768)" stroke-width="1.08501" stroke-linecap="round" stroke-linejoin="round"/>
<path d="M31.7436 62.5305L32.1296 61.8101" stroke="url(#paint30_linear_785_4768)" stroke-width="1.08501" stroke-linecap="round" stroke-linejoin="round"/>
<path d="M21.8056 90.6362L23.385 91.2277L29.5803 93.1831L38.7798 95.9235L49.4459 98.9303L60.5382 101.829L70.3475 103.839L82.6976 106.855L95.8763 110.504L107.045 112.99L117.618 113.713L130.737 113.963L146.178 114.983L162.005 116.633L176.896 118.496L190.716 120.237L204.011 121.68L216.306 122.821L225.018 123.733L231.198 124.289L234.001 124.493" stroke="url(#paint31_linear_785_4768)" stroke-width="1.08501" stroke-linecap="round" stroke-linejoin="round"/>
<path d="M69.0762 40.2061L69.7276 40.5743L71.9585 41.8881L75.3166 43.4529L79.4089 44.614L84.0925 45.0117L89.503 44.8006L95.9892 44.8977L103.588 46.1791L111.922 49.2526L120.274 54.6209L127.698 61.9613L133.626 69.7802L132.839 78.4288L131.855 87.6321L131.04 96.342L130.841 104.244L130.736 113.963L129.583 127.456L127.129 142.511L124.41 157.245L121.638 172.018L118.737 186.517L115.765 200.062L112.834 211.731L110.257 219.291L108.408 220.825" stroke="url(#paint32_linear_785_4768)" stroke-width="1.08501" stroke-linecap="round" stroke-linejoin="round"/>
<path d="M226.784 132.604L220.817 139.319L216.913 139.276L216.797 139.394L205.03 151.066L198.537 162.377L194.567 162.652L191.849 164.069L187.63 165.568L181.019 166.811L171.087 167.228L157.383 166.04L140.952 162.716L124.411 157.244L111.048 150.787L100.531 146.654L87.3081 145.92L69.4712 146.185L52.7787 144.934L41.9396 142.276L32.9941 139.807L26.8629 137.508" stroke="url(#paint33_linear_785_4768)" stroke-width="1.08501" stroke-linecap="round" stroke-linejoin="round"/>
<path d="M31.2661 63.4393L31.8721 62.6243L45.4976 55.2448L55.2828 50.2442" stroke="url(#paint34_linear_785_4768)" stroke-width="1.08501" stroke-linecap="round" stroke-linejoin="round"/>
<path d="M143.307 42.6387L143.651 43.5428L143.876 44.6247L145.699 50.7164L147.248 52.9762L147.326 53.1514L147.434 53.3978L149.059 57.0142L151.68 62.863" stroke="url(#paint35_linear_785_4768)" stroke-width="1.08501" stroke-linecap="round" stroke-linejoin="round"/>
<path d="M144.888 46.1931L146.591 49.4871L147.287 50.6907L148.1 51.9442L150.608 55.4105L151.705 56.8321" stroke="url(#paint36_linear_785_4768)" stroke-width="1.08501" stroke-linecap="round" stroke-linejoin="round"/>
<path d="M152.141 57.0865L152.4 57.1903L152.506 57.2022L152.54 57.214L160.861 59.8957L161.528 59.9606L166.898 59.3167L172.933 58.3595L173.878 58.3038L190.669 57.3093L207.282 62.1815L218.461 73.9853L225.846 89.0994L229.909 105.942L225.017 123.733L212.356 139.02L207.683 138.63L205.781 141.038L197.468 151.549L192.742 151.93L185.799 152.019L175.613 151.451L161.504 149.751L144.412 146.681L127.129 142.511L113.126 138.165L102.602 135.032L90.0925 133.345L72.9868 131.736L56.6559 129.485L45.5526 127.076L35.3687 124.835L27.6246 122.851L23.3312 121.248L22.9297 120.148L22.9984 106.111L23.233 96.9368L23.3844 91.2277L29.3174 77.8421L40.9813 68.4448L53.2868 61.2797L63.5576 53.236L71.9587 41.8881L80.6986 30.7716L81.563 29.6703L85.9289 26.349L86.7493 25.7202L92.2882 21.4937L93.8452 20.3058L95.5924 19.2341L97.5572 18.6132L98.3122 18.4412L101.691 18.1498L103.144 17.6101L107.702 15.917L113.79 13.6551L116.76 13.7563L120.149 14.8526" stroke="url(#paint37_linear_785_4768)" stroke-width="1.08501" stroke-linecap="round" stroke-linejoin="round"/>
<path d="M123.803 17.0491L128.525 20.1226L128.703 20.2369L130.384 21.3313L132.109 22.8294" stroke="url(#paint38_linear_785_4768)" stroke-width="1.08501" stroke-linecap="round" stroke-linejoin="round"/>
<path d="M147.287 50.6909L147.644 51.3093L150.409 56.0907" stroke="url(#paint39_linear_785_4768)" stroke-width="1.08501" stroke-linecap="round" stroke-linejoin="round"/>
<path d="M148.1 51.9446L149.009 53.3404L151.038 56.4494" stroke="url(#paint40_linear_785_4768)" stroke-width="1.08501" stroke-linecap="round" stroke-linejoin="round"/>
<path d="M150.607 55.4109L151.584 56.764" stroke="url(#paint41_linear_785_4768)" stroke-width="1.08501" stroke-linecap="round" stroke-linejoin="round"/>
<path d="M23.2335 96.9368L22.4273 93.375L21.8056 90.6362L23.4345 81.4464L24.4554 75.6686L35.3035 65.1732L48.5657 58.0262L60.0929 50.6392L69.7284 40.5743L74.071 36.1513" stroke="url(#paint42_linear_785_4768)" stroke-width="1.08501" stroke-linecap="round" stroke-linejoin="round"/>
<path d="M142.044 40.8105L144.003 47.657L145.699 50.7157L145.827 51.3373L145.871 51.5727L145.948 51.9337L148.255 63.068L152.243 70.2584" stroke="url(#paint43_linear_785_4768)" stroke-width="1.08501" stroke-linecap="round" stroke-linejoin="round"/>
<path d="M23.4546 123.105L23.2199 121.799L22.9297 120.148" stroke="url(#paint44_linear_785_4768)" stroke-width="1.08501" stroke-linecap="round" stroke-linejoin="round"/>
<path d="M80.2327 29.8767L80.7148 29.5804L82.5185 28.4583L85.9293 26.3488" stroke="url(#paint45_linear_785_4768)" stroke-width="1.08501" stroke-linecap="round" stroke-linejoin="round"/>
<path d="M146.42 49.6145L148.643 54.5861L149.579 55.6085" stroke="url(#paint46_linear_785_4768)" stroke-width="1.08501" stroke-linecap="round" stroke-linejoin="round"/>
</g>
<defs>
<linearGradient id="paint0_linear_785_4768" x1="73.8328" y1="16.9152" x2="95.0178" y2="23.7906" gradientUnits="userSpaceOnUse">
<stop stop-color="#DD38DD"/>
<stop offset="1" stop-color="#0BA5EC"/>
</linearGradient>
<linearGradient id="paint1_linear_785_4768" x1="50.6806" y1="2.56089" x2="122.417" y2="21.0161" gradientUnits="userSpaceOnUse">
<stop stop-color="#DD38DD"/>
<stop offset="1" stop-color="#0BA5EC"/>
</linearGradient>
<linearGradient id="paint2_linear_785_4768" x1="82.041" y1="8.27598" x2="116.165" y2="18.0467" gradientUnits="userSpaceOnUse">
<stop stop-color="#DD38DD"/>
<stop offset="1" stop-color="#0BA5EC"/>
</linearGradient>
<linearGradient id="paint3_linear_785_4768" x1="165.903" y1="74.7388" x2="228.245" y2="120.986" gradientUnits="userSpaceOnUse">
<stop stop-color="#DD38DD"/>
<stop offset="1" stop-color="#0BA5EC"/>
</linearGradient>
<linearGradient id="paint4_linear_785_4768" x1="61.7666" y1="4.96127" x2="264.653" y2="73.2962" gradientUnits="userSpaceOnUse">
<stop stop-color="#DD38DD"/>
<stop offset="1" stop-color="#0BA5EC"/>
</linearGradient>
<linearGradient id="paint5_linear_785_4768" x1="153.523" y1="54.471" x2="161.202" y2="63.8436" gradientUnits="userSpaceOnUse">
<stop stop-color="#DD38DD"/>
<stop offset="1" stop-color="#0BA5EC"/>
</linearGradient>
<linearGradient id="paint6_linear_785_4768" x1="155.452" y1="46.8497" x2="179.823" y2="64.0863" gradientUnits="userSpaceOnUse">
<stop stop-color="#DD38DD"/>
<stop offset="1" stop-color="#0BA5EC"/>
</linearGradient>
<linearGradient id="paint7_linear_785_4768" x1="65.9119" y1="41.6797" x2="239.496" y2="113.092" gradientUnits="userSpaceOnUse">
<stop stop-color="#DD38DD"/>
<stop offset="1" stop-color="#0BA5EC"/>
</linearGradient>
<linearGradient id="paint8_linear_785_4768" x1="93.4508" y1="11.9068" x2="126.926" y2="18.5596" gradientUnits="userSpaceOnUse">
<stop stop-color="#DD38DD"/>
<stop offset="1" stop-color="#0BA5EC"/>
</linearGradient>
<linearGradient id="paint9_linear_785_4768" x1="155.486" y1="46.8553" x2="179.849" y2="64.0615" gradientUnits="userSpaceOnUse">
<stop stop-color="#DD38DD"/>
<stop offset="1" stop-color="#0BA5EC"/>
</linearGradient>
<linearGradient id="paint10_linear_785_4768" x1="140.057" y1="33.9297" x2="151.846" y2="36.4532" gradientUnits="userSpaceOnUse">
<stop stop-color="#DD38DD"/>
<stop offset="1" stop-color="#0BA5EC"/>
</linearGradient>
<linearGradient id="paint11_linear_785_4768" x1="162.322" y1="73.9154" x2="230.663" y2="123.316" gradientUnits="userSpaceOnUse">
<stop stop-color="#DD38DD"/>
<stop offset="1" stop-color="#0BA5EC"/>
</linearGradient>
<linearGradient id="paint12_linear_785_4768" x1="157.164" y1="57.5292" x2="228.734" y2="82.2734" gradientUnits="userSpaceOnUse">
<stop stop-color="#DD38DD"/>
<stop offset="1" stop-color="#0BA5EC"/>
</linearGradient>
<linearGradient id="paint13_linear_785_4768" x1="139.339" y1="31.6427" x2="165.714" y2="36.696" gradientUnits="userSpaceOnUse">
<stop stop-color="#DD38DD"/>
<stop offset="1" stop-color="#0BA5EC"/>
</linearGradient>
<linearGradient id="paint14_linear_785_4768" x1="200.834" y1="49.2356" x2="205.58" y2="54.9105" gradientUnits="userSpaceOnUse">
<stop stop-color="#DD38DD"/>
<stop offset="1" stop-color="#0BA5EC"/>
</linearGradient>
<linearGradient id="paint15_linear_785_4768" x1="30.0013" y1="107.298" x2="28.878" y2="131.523" gradientUnits="userSpaceOnUse">
<stop stop-color="#DD38DD"/>
<stop offset="1" stop-color="#0BA5EC"/>
</linearGradient>
<linearGradient id="paint16_linear_785_4768" x1="29.3134" y1="43.8229" x2="60.151" y2="53.3536" gradientUnits="userSpaceOnUse">
<stop stop-color="#DD38DD"/>
<stop offset="1" stop-color="#0BA5EC"/>
</linearGradient>
<linearGradient id="paint17_linear_785_4768" x1="145.359" y1="71.0416" x2="158.493" y2="77.6474" gradientUnits="userSpaceOnUse">
<stop stop-color="#DD38DD"/>
<stop offset="1" stop-color="#0BA5EC"/>
</linearGradient>
<linearGradient id="paint18_linear_785_4768" x1="48.9427" y1="10.4907" x2="228.144" y2="68.0773" gradientUnits="userSpaceOnUse">
<stop stop-color="#DD38DD"/>
<stop offset="1" stop-color="#0BA5EC"/>
</linearGradient>
<linearGradient id="paint19_linear_785_4768" x1="127.785" y1="20.333" x2="133.902" y2="23.7173" gradientUnits="userSpaceOnUse">
<stop stop-color="#DD38DD"/>
<stop offset="1" stop-color="#0BA5EC"/>
</linearGradient>
<linearGradient id="paint20_linear_785_4768" x1="121.881" y1="22.8481" x2="132.12" y2="24.6708" gradientUnits="userSpaceOnUse">
<stop stop-color="#DD38DD"/>
<stop offset="1" stop-color="#0BA5EC"/>
</linearGradient>
<linearGradient id="paint21_linear_785_4768" x1="44.6841" y1="2.93684" x2="114.35" y2="27.5503" gradientUnits="userSpaceOnUse">
<stop stop-color="#DD38DD"/>
<stop offset="1" stop-color="#0BA5EC"/>
</linearGradient>
<linearGradient id="paint22_linear_785_4768" x1="157.957" y1="42.1151" x2="210.426" y2="83.9805" gradientUnits="userSpaceOnUse">
<stop stop-color="#DD38DD"/>
<stop offset="1" stop-color="#0BA5EC"/>
</linearGradient>
<linearGradient id="paint23_linear_785_4768" x1="140.945" y1="29.767" x2="214.347" y2="92.5514" gradientUnits="userSpaceOnUse">
<stop stop-color="#DD38DD"/>
<stop offset="1" stop-color="#0BA5EC"/>
</linearGradient>
<linearGradient id="paint24_linear_785_4768" x1="95.9574" y1="17.796" x2="98.7263" y2="19.3326" gradientUnits="userSpaceOnUse">
<stop stop-color="#DD38DD"/>
<stop offset="1" stop-color="#0BA5EC"/>
</linearGradient>
<linearGradient id="paint25_linear_785_4768" x1="58.8329" y1="48.8242" x2="71.4545" y2="57.0847" gradientUnits="userSpaceOnUse">
<stop stop-color="#DD38DD"/>
<stop offset="1" stop-color="#0BA5EC"/>
</linearGradient>
<linearGradient id="paint26_linear_785_4768" x1="136.2" y1="26.9235" x2="172.769" y2="36.3853" gradientUnits="userSpaceOnUse">
<stop stop-color="#DD38DD"/>
<stop offset="1" stop-color="#0BA5EC"/>
</linearGradient>
<linearGradient id="paint27_linear_785_4768" x1="144.234" y1="36.7429" x2="200.605" y2="95.0285" gradientUnits="userSpaceOnUse">
<stop stop-color="#DD38DD"/>
<stop offset="1" stop-color="#0BA5EC"/>
</linearGradient>
<linearGradient id="paint28_linear_785_4768" x1="141.662" y1="38.2809" x2="142.752" y2="38.579" gradientUnits="userSpaceOnUse">
<stop stop-color="#DD38DD"/>
<stop offset="1" stop-color="#0BA5EC"/>
</linearGradient>
<linearGradient id="paint29_linear_785_4768" x1="28.5009" y1="75.5618" x2="175.38" y2="129.863" gradientUnits="userSpaceOnUse">
<stop stop-color="#DD38DD"/>
<stop offset="1" stop-color="#0BA5EC"/>
</linearGradient>
<linearGradient id="paint30_linear_785_4768" x1="31.8828" y1="61.7682" x2="32.1531" y2="61.8297" gradientUnits="userSpaceOnUse">
<stop stop-color="#DD38DD"/>
<stop offset="1" stop-color="#0BA5EC"/>
</linearGradient>
<linearGradient id="paint31_linear_785_4768" x1="30.175" y1="89.9606" x2="36.4531" y2="150.903" gradientUnits="userSpaceOnUse">
<stop stop-color="#DD38DD"/>
<stop offset="1" stop-color="#0BA5EC"/>
</linearGradient>
<linearGradient id="paint32_linear_785_4768" x1="71.852" y1="40.6764" x2="148.705" y2="59.4398" gradientUnits="userSpaceOnUse">
<stop stop-color="#DD38DD"/>
<stop offset="1" stop-color="#0BA5EC"/>
</linearGradient>
<linearGradient id="paint33_linear_785_4768" x1="40.5799" y1="101.057" x2="158.719" y2="222.221" gradientUnits="userSpaceOnUse">
<stop stop-color="#DD38DD"/>
<stop offset="1" stop-color="#0BA5EC"/>
</linearGradient>
<linearGradient id="paint34_linear_785_4768" x1="34.9114" y1="46.7929" x2="55.7945" y2="54.9835" gradientUnits="userSpaceOnUse">
<stop stop-color="#DD38DD"/>
<stop offset="1" stop-color="#0BA5EC"/>
</linearGradient>
<linearGradient id="paint35_linear_785_4768" x1="143.741" y1="42.7123" x2="155.637" y2="46.0219" gradientUnits="userSpaceOnUse">
<stop stop-color="#DD38DD"/>
<stop offset="1" stop-color="#0BA5EC"/>
</linearGradient>
<linearGradient id="paint36_linear_785_4768" x1="145.205" y1="46.2469" x2="153.726" y2="49.0442" gradientUnits="userSpaceOnUse">
<stop stop-color="#DD38DD"/>
<stop offset="1" stop-color="#0BA5EC"/>
</linearGradient>
<linearGradient id="paint37_linear_785_4768" x1="46.4454" y1="1.8435" x2="239.351" y2="90.5695" gradientUnits="userSpaceOnUse">
<stop stop-color="#DD38DD"/>
<stop offset="1" stop-color="#0BA5EC"/>
</linearGradient>
<linearGradient id="paint38_linear_785_4768" x1="124.145" y1="17.107" x2="132.207" y2="21.5736" gradientUnits="userSpaceOnUse">
<stop stop-color="#DD38DD"/>
<stop offset="1" stop-color="#0BA5EC"/>
</linearGradient>
<linearGradient id="paint39_linear_785_4768" x1="147.436" y1="50.7161" x2="151.451" y2="51.9766" gradientUnits="userSpaceOnUse">
<stop stop-color="#DD38DD"/>
<stop offset="1" stop-color="#0BA5EC"/>
</linearGradient>
<linearGradient id="paint40_linear_785_4768" x1="148.236" y1="51.9677" x2="151.89" y2="53.177" gradientUnits="userSpaceOnUse">
<stop stop-color="#DD38DD"/>
<stop offset="1" stop-color="#0BA5EC"/>
</linearGradient>
<linearGradient id="paint41_linear_785_4768" x1="150.652" y1="55.4184" x2="151.834" y2="55.8289" gradientUnits="userSpaceOnUse">
<stop stop-color="#DD38DD"/>
<stop offset="1" stop-color="#0BA5EC"/>
</linearGradient>
<linearGradient id="paint42_linear_785_4768" x1="33.8219" y1="29.3322" x2="77.2284" y2="41.3523" gradientUnits="userSpaceOnUse">
<stop stop-color="#DD38DD"/>
<stop offset="1" stop-color="#0BA5EC"/>
</linearGradient>
<linearGradient id="paint43_linear_785_4768" x1="142.603" y1="40.9053" x2="157.99" y2="44.9707" gradientUnits="userSpaceOnUse">
<stop stop-color="#DD38DD"/>
<stop offset="1" stop-color="#0BA5EC"/>
</linearGradient>
<linearGradient id="paint44_linear_785_4768" x1="22.9675" y1="120.155" x2="24.0171" y2="120.397" gradientUnits="userSpaceOnUse">
<stop stop-color="#DD38DD"/>
<stop offset="1" stop-color="#0BA5EC"/>
</linearGradient>
<linearGradient id="paint45_linear_785_4768" x1="81.1604" y1="25.5408" x2="86.1065" y2="27.3664" gradientUnits="userSpaceOnUse">
<stop stop-color="#DD38DD"/>
<stop offset="1" stop-color="#0BA5EC"/>
</linearGradient>
<linearGradient id="paint46_linear_785_4768" x1="146.574" y1="49.6405" x2="150.745" y2="50.9025" gradientUnits="userSpaceOnUse">
<stop stop-color="#DD38DD"/>
<stop offset="1" stop-color="#0BA5EC"/>
</linearGradient>
</defs>
</svg>
