<svg width="291" height="441" viewBox="0 0 291 441" fill="none" xmlns="http://www.w3.org/2000/svg">
<g opacity="0.1">
<path d="M273.017 419.218L235.237 425.083L185.185 435.967L127.324 448.787L78.8925 457.257L43.9744 461.955L28.468 462.23" stroke="url(#paint0_linear_785_4848)" stroke-width="1.08501" stroke-linecap="round" stroke-linejoin="round"/>
<path d="M147.031 276.201L147.444 275.361L163.581 242.08L174.958 206.535L181.274 198.91L189.83 167.666L192.398 158.317L202.599 145.47L221.914 134.777L251.89 129.103L291.627 131.379L337.027 143.702L381.013 167.11L416.057 195.075L411.023 232.936L406.056 269.838L401.035 306.508L395.734 343.57L389.967 377.576L384.802 406.604L379.934 437.316L374.785 470.615L369.778 500.236L364.872 528.039L359.437 559.707L353.333 595.118L367.805 614.587L383.924 630.852L400.624 642.774L416.739 650.033L431.226 652.811L443.528 652.704L470.488 618.174L471.669 616.665L472.041 615.871L492.315 573.636L510.524 536.951L513.207 534.358L535.159 513.1L538.209 509.868L559.987 486.908L574.737 451.098L588.286 414.979L607.118 379.021L626.964 338.955L632.656 295.468L625.991 253.946L612.861 216.33L593.46 207.378L579.199 172.989L556.318 163.838L522.723 162.485L485.085 166.866L451.301 167.335L421.479 154.228L388.547 127.702L348.315 100.367L305.779 85.2698L267.235 81.4006L236.928 86.9765L216.623 99.2911L202.599 145.47L192.369 190.492L181.274 198.91L171.329 237.768L169.78 241.507L156.063 274.421L147.031 276.201ZM147.031 276.201L144.948 278.464L114.357 311.426L113.989 311.823L100.788 311.439L60.6523 355.907L38.5695 409.205L43.9736 461.955L66.7452 508.731L106.235 542.77L161.651 555.388L183.122 546.436L210.623 533.342L243.061 514.917L273.364 497.537L293.236 505.968L309.368 500.304L321.926 503.637L332.759 516.474L344.587 536.554L341.148 574.503L338.994 608.986L340.542 623.809L345.164 630.339L350.086 636.342L357.906 636.896L368.647 648.545L379.666 657.623L390.403 663.689L416.739 650.033L439.549 615.399L457.918 574.9L475.135 540.579L497.78 518.33L514.839 484.523L520.345 440.768L527.452 402.423L544.47 367.435L565.034 327.177L575.035 282.192L574.09 238.715L566.95 199.199L556.318 163.838L540.364 136.156L514.508 130.801L499.985 111.324L478.08 103.572L466.416 93.193L448.478 83.9126L428.867 75.3454L426.807 74.5182L426.577 74.4337L426.267 74.3033L425.758 74.1102L425.022 73.8161L424.076 73.4226L422.858 71.038L416.534 70.4191L415.44 69.9704L414.13 69.4562L412.464 68.771L410.157 67.8569L408.194 67.0775L406.816 66.5542L401.308 64.4434L392.142 60.9503L386.913 58.9481L386.649 58.8589L386.487 58.784L375.984 54.2375L363.084 48.6777L345.233 40.9822L316.371 32.5738L290.99 32.1588L270.789 38.25L262.667 43.494L253.994 49.0918L238.511 59.0829L225.416 74.3026L222.167 81.0147L211.99 102.109L205.656 115.227L200.621 130.396L195.776 142.032L185.514 160.436L172.608 180.418L171.596 181.83L169.617 184.453L150.221 210.36L149.837 210.875L130.494 242.51L111.298 275.426L110.864 276.177L86.7235 311.055L86.3105 311.653L85.5495 312.755L72.7659 331.51L68.8198 336.188L52.6345 355.411L52.5306 355.535L36.6303 390.439L28.5765 408.136L28.4672 462.23L48.1274 511.451L64.5596 526.481L87.8307 547.767L106.235 542.77L134.694 533.649L172.536 519.048L217.146 498.268L256.807 479.725L287.415 468.247L310.562 465.027L330.387 468.181L348.714 480.817L369.778 500.236L395.587 519.462L423.979 532.902L451.298 539.277L475.135 540.579L494.657 538.92L510.524 536.951L524.931 537.85L549.724 512.881L564.771 516.827L580.132 524.17L594.042 533.208L603.133 541.011L602.912 543.676L566.743 560.864L536.121 586.356L521.996 598.475L504.668 617.104L500.835 617.806L493.698 617.193L483.88 616.597L471.669 616.665L456.988 616.97L439.549 615.399L419.638 609.555L398.46 598.381L377.762 581.382L359.437 559.707L344.587 536.554L347.115 505.892L332.655 488.532L317.802 481.14L310.562 465.027L308.245 439.778L301.681 418.888L282.912 402.058L246.092 400.784L204.758 401.359L178.049 364.446L174.701 317.19L189.774 272.145L202.436 228.988L211.506 183.127L221.914 134.777L236.928 86.9765L259.738 48.4362L288.888 45.1682L323.953 51.2752L345.233 40.9822L370.269 53.2206L375.053 55.1943L378.151 57.3612L379.59 58.1873L390.424 64.4224L402.965 71.66L429.245 85.6128L454.209 95.8018L478.08 103.572L484.606 129.366L485.085 166.866L482.273 207.098L479.564 244.648L475.096 282.053L468.03 318.64L459.928 352.662L453.097 385.152L450.011 422.563L446.759 467.242L437.208 505.638L423.979 532.902L411.498 563.555L398.46 598.381L383.924 630.852L368.647 648.545" stroke="url(#paint1_linear_785_4848)" stroke-width="1.08501" stroke-linecap="round" stroke-linejoin="round"/>
<path d="M152.122 243.188L166.044 209.68L181.416 176.429L187.519 170.07L190.697 160.445L196.267 143.571L196.88 140.703L200.621 130.397L200.694 130.252" stroke="url(#paint2_linear_785_4848)" stroke-width="1.08501" stroke-linecap="round" stroke-linejoin="round"/>
<path d="M416.057 195.075L446.109 208.871L482.273 207.098L526.485 199.862L566.95 199.199L593.46 207.378L603.418 246.273L606.591 289.029L597.335 333.273L575.096 372.913L555.979 407.466L546.794 444.496L539.097 485.418L521.148 513.31L519.156 516.398L497.78 518.33L469.735 515.136L437.208 505.638L404.099 489.992L374.785 470.615L350.835 454.123L328.985 445.377L308.245 439.778L283.692 440.846L249.539 450.267L202.93 466.979L148.296 486.546L101.437 500.389L66.7452 508.731L48.1275 511.451" stroke="url(#paint3_linear_785_4848)" stroke-width="1.08501" stroke-linecap="round" stroke-linejoin="round"/>
<path d="M171.596 181.832L172.609 180.419L178.232 173.543" stroke="url(#paint4_linear_785_4848)" stroke-width="1.08501" stroke-linecap="round" stroke-linejoin="round"/>
<path d="M273.364 497.538L256.808 479.726L249.539 450.268L235.236 425.085L204.759 401.36L156.688 403.988L105.616 407.435L65.8198 408.867L38.5699 409.207L28.5769 408.137" stroke="url(#paint5_linear_785_4848)" stroke-width="1.08501" stroke-linecap="round" stroke-linejoin="round"/>
<path d="M293.238 505.969L273.566 517.838L252.566 531.524L210.624 533.343L172.537 519.049L148.297 486.547L127.324 448.788L105.617 407.434L103.838 358.983L127.536 312.585" stroke="url(#paint6_linear_785_4848)" stroke-width="1.08501" stroke-linecap="round" stroke-linejoin="round"/>
<path d="M336.318 617.024L331.261 594.774L331.143 555.337L332.759 516.474L332.655 488.532L330.387 468.181L328.986 445.378L326.674 423.016L318.051 404.219L307.268 376.146L303.606 332.699L309.885 284.335L318.635 237.686L327.353 190.652L337.027 143.702L348.315 100.368L361.386 69.2105L374.812 55.4372" stroke="url(#paint7_linear_785_4848)" stroke-width="1.08501" stroke-linecap="round" stroke-linejoin="round"/>
<path d="M127.536 312.584L148.071 314.386L174.703 317.19L209.014 321.168L252.746 326.481L303.607 332.699L354.282 338.77L395.736 343.57L426.645 347.412L459.93 352.662L503.059 360.153L544.472 367.435L575.097 372.914L607.12 379.022L634.846 384.711L654.985 389.309L664.211 392.136" stroke="url(#paint8_linear_785_4848)" stroke-width="1.08501" stroke-linecap="round" stroke-linejoin="round"/>
<path d="M357.906 636.897L347.911 623.401L353.333 595.119L341.149 574.503L331.144 555.338L322.573 540.074L314.273 530.344L305.337 526.451L295.45 527.315L273.566 517.838L243.062 514.918L217.147 498.269L202.931 466.98L185.185 435.968L156.688 403.987L139.487 361.319L148.07 314.387L169.7 272.949L183.414 233.104L192.37 190.493L211.507 183.128L240.846 179.023M240.846 179.023L280.643 180.875L327.354 190.653L373.763 209.271L411.024 232.937L441.612 245.754L479.565 244.649L528.671 238.608L574.09 238.715L603.419 246.274L625.991 253.947L640.653 261.588L650.569 301.635L658.301 307.448L661.557 343.026L662.059 348.386L654.984 389.31L646.191 430.042L627.055 466.804L596.261 494.363L578.624 489.67L559.988 486.909L539.098 485.419L514.84 484.524L483.302 479.02L446.759 467.243L410.904 451.467L379.934 437.317L352.512 428.87L326.675 423.016L301.682 418.889L273.016 419.218L246.092 400.785L218.155 368.399L209.013 321.169L219.276 272.989L231.129 227.004L240.846 179.023ZM240.846 179.023L251.891 129.104L267.236 81.4014L288.889 45.169L316.371 32.5747" stroke="url(#paint9_linear_785_4848)" stroke-width="1.08501" stroke-linecap="round" stroke-linejoin="round"/>
<path d="M110.864 276.176L119.614 275.774L138.838 242.412L155.995 210.105L166.045 209.679L174.958 206.535L176.28 202.695L187.52 170.069L192.399 158.317L199.418 135.479L201.85 127.58L202.007 127.084L205.658 115.21L216.623 99.2908L238.511 59.0825L259.738 48.4359L271.755 42.1711L290.991 32.1585" stroke="url(#paint10_linear_785_4848)" stroke-width="1.08501" stroke-linecap="round" stroke-linejoin="round"/>
<path d="M130.495 242.51L138.838 242.413L152.122 243.188" stroke="url(#paint11_linear_785_4848)" stroke-width="1.08501" stroke-linecap="round" stroke-linejoin="round"/>
<path d="M345.164 630.34L347.91 623.402L338.995 608.987L331.261 594.775L324.622 581.737L318.842 570.688L318.629 568.774L314.273 530.344L309.368 500.305L298.453 485.244L287.415 468.248L283.692 440.847L273.016 419.219" stroke="url(#paint12_linear_785_4848)" stroke-width="1.08501" stroke-linecap="round" stroke-linejoin="round"/>
<path d="M149.838 210.876L155.996 210.107L174.989 179.356L181.417 176.43L192.952 149.168L193.109 148.793L196.881 140.703L200.622 130.397" stroke="url(#paint13_linear_785_4848)" stroke-width="1.08501" stroke-linecap="round" stroke-linejoin="round"/>
<path d="M666.898 483.214L662.387 480.294L648.153 474.39L627.055 466.805L602.166 458.89L574.737 451.1L546.794 444.498L520.345 440.769L487.189 433.636L450.011 422.564L415.577 412.002L384.802 406.606L352.467 406.001L318.051 404.22L282.912 402.06L261.366 372.619L252.744 326.482L260.213 276.8L270.854 229.365L280.642 180.875L291.627 131.38L305.779 85.2714L323.953 51.2769" stroke="url(#paint14_linear_785_4848)" stroke-width="1.08501" stroke-linecap="round" stroke-linejoin="round"/>
<path d="M668.876 436.798L664.261 435.211L646.191 430.042L619.37 422.839L588.286 414.98L555.979 407.466L527.452 402.424L491.498 394.67L453.097 385.152L420.603 378.839L389.968 377.577L352.007 377.886L307.269 376.146L261.366 372.618L218.154 368.399L178.049 364.447L139.487 361.318L103.837 358.982L78.5707 357.029L60.6525 355.908L52.5309 355.535" stroke="url(#paint15_linear_785_4848)" stroke-width="1.08501" stroke-linecap="round" stroke-linejoin="round"/>
<path d="M171.597 181.832L174.989 179.357L179.095 172.455L192.435 150.011" stroke="url(#paint16_linear_785_4848)" stroke-width="1.08501" stroke-linecap="round" stroke-linejoin="round"/>
<path d="M85.5496 312.756L89.4951 311.621L89.9083 311.144L91.7182 308.98L119.614 275.775L134.23 276.411L147.031 276.202" stroke="url(#paint17_linear_785_4848)" stroke-width="1.08501" stroke-linecap="round" stroke-linejoin="round"/>
<path d="M72.7665 331.511L89.4956 311.621L100.789 311.441L101.115 311.09L134.231 276.412L152.122 243.189L163.582 242.082L171.33 237.77L183.414 233.104L202.437 228.99L231.129 227.005L270.855 229.364L318.636 237.687L366.903 252.214L406.057 269.839L436.798 280.968L475.096 282.054L526.662 279.887L575.036 282.193L606.592 289.03L632.657 295.47L650.569 301.636" stroke="url(#paint18_linear_785_4848)" stroke-width="1.08501" stroke-linecap="round" stroke-linejoin="round"/>
<path d="M294.566 544.057L293.81 543.777L293.503 543.75L293.404 543.719L269.126 536.617L267.192 536.481L251.713 538.765L234.334 542.007L231.605 542.242L183.123 546.436L134.695 533.649L101.437 500.389L78.8926 457.258L65.8203 408.866L78.5713 357.029L113.99 311.824L127.535 312.584L132.846 305.473L156.064 274.422L169.7 272.949L189.775 272.146L219.277 272.988L260.214 276.799L309.886 284.335L360.199 295.038L401.036 306.508L431.721 314.742L468.031 318.641L517.628 321.95L565.035 327.178L597.336 333.274L626.965 338.956L649.517 344.086L662.06 348.385L663.307 351.535L664.21 392.137L664.252 418.688L664.262 435.211L648.154 474.389L615.158 502.482L580.132 524.17L551.06 548.24L527.654 581.718L503.25 614.554L500.836 617.807L488.47 627.755L486.147 629.638L470.46 642.296L466.05 645.854L461.081 649.09L455.447 651.04L453.277 651.597L443.529 652.705L439.369 654.38L426.32 659.634L408.891 666.653L400.293 666.594L390.404 663.69" stroke="url(#paint19_linear_785_4848)" stroke-width="1.08501" stroke-linecap="round" stroke-linejoin="round"/>
</g>
<defs>
<linearGradient id="paint0_linear_785_4848" x1="253.381" y1="494.085" x2="69.4532" y2="365.226" gradientUnits="userSpaceOnUse">
<stop stop-color="#DD38DD"/>
<stop offset="1" stop-color="#0BA5EC"/>
</linearGradient>
<linearGradient id="paint1_linear_785_4848" x1="560.029" y1="687.713" x2="-32.0996" y2="506.008" gradientUnits="userSpaceOnUse">
<stop stop-color="#DD38DD"/>
<stop offset="1" stop-color="#0BA5EC"/>
</linearGradient>
<linearGradient id="paint2_linear_785_4848" x1="182.848" y1="247.54" x2="149.055" y2="241.192" gradientUnits="userSpaceOnUse">
<stop stop-color="#DD38DD"/>
<stop offset="1" stop-color="#0BA5EC"/>
</linearGradient>
<linearGradient id="paint3_linear_785_4848" x1="545.158" y1="581.846" x2="37.533" y2="388.94" gradientUnits="userSpaceOnUse">
<stop stop-color="#DD38DD"/>
<stop offset="1" stop-color="#0BA5EC"/>
</linearGradient>
<linearGradient id="paint4_linear_785_4848" x1="176.747" y1="182.561" x2="171.167" y2="181.205" gradientUnits="userSpaceOnUse">
<stop stop-color="#DD38DD"/>
<stop offset="1" stop-color="#0BA5EC"/>
</linearGradient>
<linearGradient id="paint5_linear_785_4848" x1="263.804" y1="496.184" x2="62.279" y2="358.679" gradientUnits="userSpaceOnUse">
<stop stop-color="#DD38DD"/>
<stop offset="1" stop-color="#0BA5EC"/>
</linearGradient>
<linearGradient id="paint6_linear_785_4848" x1="280.006" y1="543.17" x2="71.0778" y2="477.225" gradientUnits="userSpaceOnUse">
<stop stop-color="#DD38DD"/>
<stop offset="1" stop-color="#0BA5EC"/>
</linearGradient>
<linearGradient id="paint7_linear_785_4848" x1="333.587" y1="616.637" x2="256.913" y2="604.092" gradientUnits="userSpaceOnUse">
<stop stop-color="#DD38DD"/>
<stop offset="1" stop-color="#0BA5EC"/>
</linearGradient>
<linearGradient id="paint8_linear_785_4848" x1="643.864" y1="389.255" x2="645.211" y2="319.105" gradientUnits="userSpaceOnUse">
<stop stop-color="#DD38DD"/>
<stop offset="1" stop-color="#0BA5EC"/>
</linearGradient>
<linearGradient id="paint9_linear_785_4848" x1="596.682" y1="670.715" x2="73.8983" y2="518.235" gradientUnits="userSpaceOnUse">
<stop stop-color="#DD38DD"/>
<stop offset="1" stop-color="#0BA5EC"/>
</linearGradient>
<linearGradient id="paint10_linear_785_4848" x1="248.162" y1="295.622" x2="99.0048" y2="260.716" gradientUnits="userSpaceOnUse">
<stop stop-color="#DD38DD"/>
<stop offset="1" stop-color="#0BA5EC"/>
</linearGradient>
<linearGradient id="paint11_linear_785_4848" x1="150.984" y1="245.412" x2="145.527" y2="233.962" gradientUnits="userSpaceOnUse">
<stop stop-color="#DD38DD"/>
<stop offset="1" stop-color="#0BA5EC"/>
</linearGradient>
<linearGradient id="paint12_linear_785_4848" x1="343.038" y1="630.039" x2="236.533" y2="605.545" gradientUnits="userSpaceOnUse">
<stop stop-color="#DD38DD"/>
<stop offset="1" stop-color="#0BA5EC"/>
</linearGradient>
<linearGradient id="paint13_linear_785_4848" x1="186.987" y1="216.138" x2="146.443" y2="207.286" gradientUnits="userSpaceOnUse">
<stop stop-color="#DD38DD"/>
<stop offset="1" stop-color="#0BA5EC"/>
</linearGradient>
<linearGradient id="paint14_linear_785_4848" x1="650.695" y1="480.919" x2="221.645" y2="335.405" gradientUnits="userSpaceOnUse">
<stop stop-color="#DD38DD"/>
<stop offset="1" stop-color="#0BA5EC"/>
</linearGradient>
<linearGradient id="paint15_linear_785_4848" x1="644.723" y1="439.408" x2="621.783" y2="263.651" gradientUnits="userSpaceOnUse">
<stop stop-color="#DD38DD"/>
<stop offset="1" stop-color="#0BA5EC"/>
</linearGradient>
<linearGradient id="paint16_linear_785_4848" x1="187.001" y1="184.013" x2="170.206" y2="180.287" gradientUnits="userSpaceOnUse">
<stop stop-color="#DD38DD"/>
<stop offset="1" stop-color="#0BA5EC"/>
</linearGradient>
<linearGradient id="paint17_linear_785_4848" x1="138.656" y1="320.277" x2="83.801" y2="300.635" gradientUnits="userSpaceOnUse">
<stop stop-color="#DD38DD"/>
<stop offset="1" stop-color="#0BA5EC"/>
</linearGradient>
<linearGradient id="paint18_linear_785_4848" x1="613.76" y1="408.133" x2="262.581" y2="66.9887" gradientUnits="userSpaceOnUse">
<stop stop-color="#DD38DD"/>
<stop offset="1" stop-color="#0BA5EC"/>
</linearGradient>
<linearGradient id="paint19_linear_785_4848" x1="604.583" y1="695.528" x2="39.72" y2="454.066" gradientUnits="userSpaceOnUse">
<stop stop-color="#DD38DD"/>
<stop offset="1" stop-color="#0BA5EC"/>
</linearGradient>
</defs>
</svg>
