<svg width="255" height="167" viewBox="0 0 255 167" fill="none" xmlns="http://www.w3.org/2000/svg">
<g opacity="0.1">
<path d="M227.673 56.5089L226.912 41.8511L221.461 27.9518L215.757 14.9233L209.475 2.62862L201.052 -7.78571L190.849 -15.5349L185.814 -15.4738L180.254 -16.4633L172.648 -23.0811L171.578 -24.0154L165.033 -36.1995L157.831 -50.6299L148.594 -62.7719L137.776 -67.2438" stroke="url(#paint0_linear_785_4928)" stroke-width="1.08501" stroke-linecap="round" stroke-linejoin="round"/>
<path d="M117.169 146.075L129.934 139.527L141.701 130.731L151.977 123.261L161.734 119.029L171.945 117.587L182.263 116.81" stroke="url(#paint1_linear_785_4928)" stroke-width="1.08501" stroke-linecap="round" stroke-linejoin="round"/>
<path d="M96.1195 19.4225L83.011 17.7501L65.6152 14.4588L45.503 10.5719L28.6897 8.09955L16.5809 6.8039L11.2206 6.85415" stroke="url(#paint2_linear_785_4928)" stroke-width="1.08501" stroke-linecap="round" stroke-linejoin="round"/>
<path d="M53.9306 70.0185L54.0811 70.3049L59.9688 81.6526L64.233 93.8273L66.4869 96.4028L69.736 107.118L70.711 110.324L74.3562 114.667L81.1301 118.181L91.5404 119.86L105.249 118.701L120.82 114.018L135.798 105.517L147.644 95.5261L145.55 82.4918L143.488 69.7881L141.409 57.1652L139.23 44.4093L136.919 32.7136L134.862 22.7324L132.891 12.1665L130.8 0.709454L128.793 -9.47805L126.837 -19.0385L124.662 -29.9295L122.221 -42.1071L127.039 -48.97L132.456 -54.7407L138.114 -59.0166L143.614 -61.676L148.593 -62.7716L152.845 -62.85L162.484 -51.1721L162.906 -50.6618L163.042 -50.3909L170.443 -35.9882L177.078 -23.4834L178.03 -22.6129L185.814 -15.4735L186.898 -14.3855L194.638 -6.65681L200.07 5.5779L205.09 17.9305L211.934 30.178L219.167 43.8354L221.542 58.8075L219.628 73.2167L215.444 86.3368L208.824 89.6118L204.22 101.627L196.4 105.004L184.805 105.786L171.759 104.626L160.082 104.78L149.901 109.589L138.771 119.063L125.126 128.885L110.571 134.5L97.2898 136.198L86.7658 134.556L79.6346 130.491L74.3562 114.667L70.3993 99.2072L66.4869 96.4028L62.6863 83.0698L62.1161 81.7927L57.0678 70.5487L53.9306 70.0185ZM53.9306 70.0185L53.1896 69.2562L42.3107 58.1542L42.18 58.0203L37.6225 58.2767L23.3378 43.2887L15.208 25.0803L16.5806 6.80387L24.0099 -9.57158L37.3352 -21.703L56.3641 -26.5825L63.8665 -23.6906L73.4913 -19.4245L84.872 -13.3624L95.5051 -7.64149L102.292 -10.741L107.919 -8.93497L112.227 -10.2046L115.849 -14.7415L119.748 -21.7905L118.204 -34.87L117.137 -46.7645L117.532 -51.9004L119.068 -54.2001L120.712 -56.3203L123.409 -56.5852L127.011 -60.7107L130.733 -63.9508L134.386 -66.1473L143.614 -61.676L151.82 -49.9232L158.546 -36.1022L164.817 -24.4054L172.85 -16.9303L179.061 -5.40943L181.374 9.65733L184.189 22.8393L190.397 34.7687L197.88 48.4857L201.757 63.9351L201.838 78.9661L199.742 92.6863L196.4 105.004L191.147 114.718L182.264 116.811L177.428 123.677L169.932 126.56L166 130.256L159.889 133.631L153.193 136.775L152.489 137.08L152.41 137.111L152.304 137.159L152.131 137.231L151.879 137.339L151.556 137.484L151.157 138.319L148.978 138.592L148.604 138.758L148.156 138.948L147.587 139.2L146.799 139.538L146.128 139.825L145.657 140.019L143.773 140.8L140.639 142.093L138.851 142.834L138.761 142.867L138.705 142.894L135.119 144.564L130.714 146.606L124.618 149.432L114.725 152.608L105.959 152.989L98.9223 151.074L96.0668 149.338L93.0175 147.486L87.5743 144.179L82.907 139.043L81.7214 136.754L78.0074 129.561L75.6958 125.088L73.8141 119.894L72.0309 115.919L68.3125 109.656L63.6661 102.873L63.303 102.395L62.5948 101.507L55.6503 92.7379L55.5127 92.5634L48.5328 81.8145L41.5915 70.6213L41.4343 70.366L32.7664 58.5414L32.6181 58.3387L32.3448 57.9651L27.752 51.6047L26.3447 50.0255L20.5722 43.5352L20.5351 43.4935L14.714 31.5826L11.7653 25.5436L11.2203 6.85411L17.5517 -10.3369L23.0883 -15.684L30.9293 -23.257L37.3352 -21.703L47.2538 -18.8184L60.4656 -14.1282L76.074 -7.36677L89.9516 -1.33182L100.635 2.34696L108.663 3.24235L115.483 1.96689L121.697 -2.57109L128.793 -9.47805L137.53 -16.3632L147.214 -21.2731L156.593 -23.7319L164.817 -24.4054L171.578 -24.0151L177.078 -23.4834L182.048 -23.9294L190.848 -15.5346L196.01 -17.039L201.249 -19.7201L205.97 -22.9736L209.038 -25.7549L208.937 -26.6735L196.279 -32.2732L185.459 -40.7938L180.465 -44.8486L174.303 -51.1229L172.973 -51.3295L170.512 -51.0507L167.126 -50.7528L162.906 -50.6618L157.831 -50.6296L151.82 -49.9232L144.995 -47.7172L137.782 -43.6579L130.79 -37.5902L124.662 -29.9295L119.748 -21.7905L120.909 -11.2197L116.076 -5.08603L111.013 -2.39271L108.663 3.24235L108.099 11.9881L106.027 19.2674L99.6994 25.2585L86.9894 26.0441L72.7026 26.2331L63.8203 39.2374L63.1067 55.5967L68.7369 71.0191L73.5166 85.8118L77.0806 101.572L81.1301 118.181L86.7658 134.556L95.0083 147.658L105.111 148.514L117.169 146.075L124.618 149.432L133.154 144.969L134.789 144.242L135.839 143.464L136.328 143.165L140.013 140.909L144.278 138.291L153.227 133.224L161.757 129.469L169.932 126.56L171.945 117.587L171.759 104.626L170.41 90.7512L169.122 77.8024L167.228 64.9203L164.443 52.3449L161.325 40.6659L158.66 29.5041L157.243 16.607L155.7 1.19992L152.04 -11.9769L147.214 -21.2731L142.614 -31.7472L137.782 -43.6579L132.456 -54.7407L127.011 -60.7107" stroke="url(#paint3_linear_785_4928)" stroke-width="1.08501" stroke-linecap="round" stroke-linejoin="round"/>
<path d="M55.9992 81.3772L61.1239 92.8242L66.7471 104.169L68.9153 106.309L70.1036 109.605L72.1862 115.383L72.4251 116.368L73.8143 119.894L73.8407 119.943" stroke="url(#paint4_linear_785_4928)" stroke-width="1.08501" stroke-linecap="round" stroke-linejoin="round"/>
<path d="M139.653 142.859L142.554 141.714L145.337 140.612L146.449 140.094L151.157 138.319" stroke="url(#paint5_linear_785_4928)" stroke-width="1.08501" stroke-linecap="round" stroke-linejoin="round"/>
<path d="M140.511 142.648L142.699 141.755L144.064 141.206L146.506 140.144L151.157 138.319" stroke="url(#paint6_linear_785_4928)" stroke-width="1.08501" stroke-linecap="round" stroke-linejoin="round"/>
<path d="M147.644 95.5261L157.899 90.4776L170.41 90.7513L185.754 92.8367L199.742 92.6863L208.825 89.6118L211.901 76.0796L212.596 61.277L208.983 46.0766L200.927 32.5887L193.998 20.8297L190.477 8.12102L187.434 -5.94605L180.971 -15.4148L180.254 -16.4629L172.85 -16.9303L163.19 -15.5635L152.04 -11.9769L140.747 -6.26054L130.801 0.709506L122.68 6.63233L115.213 9.85908L108.099 11.9881L99.6052 11.8494L87.7166 8.91469L71.4557 3.57745L52.3951 -2.67117L36.0747 -7.01447L24.01 -9.57153L17.5518 -10.3369" stroke="url(#paint7_linear_785_4928)" stroke-width="1.08501" stroke-linecap="round" stroke-linejoin="round"/>
<path d="M133.154 144.968L134.703 144.16L138.669 142.894L138.754 142.862" stroke="url(#paint8_linear_785_4928)" stroke-width="1.08501" stroke-linecap="round" stroke-linejoin="round"/>
<path d="M182.263 116.811L184.805 105.786L185.754 92.8366L186.146 79.4292L185.064 65.1856L181.549 50.7365L176.156 37.6732L171.838 25.8555L169.984 12.4328L168.216 -3.21206L163.19 -15.5636L156.593 -23.7319L150.947 -34.8208L144.995 -47.7172L138.114 -59.0166L130.733 -63.9508" stroke="url(#paint9_linear_785_4928)" stroke-width="1.08501" stroke-linecap="round" stroke-linejoin="round"/>
<path d="M140.639 142.092L142.064 141.581L146.449 140.094L151.157 138.319" stroke="url(#paint10_linear_785_4928)" stroke-width="1.08501" stroke-linecap="round" stroke-linejoin="round"/>
<path d="M63.3038 102.394L63.6668 102.873L65.6741 105.196" stroke="url(#paint11_linear_785_4928)" stroke-width="1.08501" stroke-linecap="round" stroke-linejoin="round"/>
<path d="M95.5049 -7.64209L89.9514 -1.33242L87.7162 8.91404L83.0105 17.7494L72.7023 26.2325L56.0685 25.7753L38.3898 25.0633L24.6263 24.9416L15.2078 25.0797L11.765 25.543" stroke="url(#paint12_linear_785_4928)" stroke-width="1.08501" stroke-linecap="round" stroke-linejoin="round"/>
<path d="M102.292 -10.7414L95.3842 -14.6579L87.9999 -19.1896L73.4913 -19.4249L60.4656 -14.1287L52.3949 -2.67168L45.5026 10.5714L38.39 25.0634L38.2298 41.821L46.8529 57.6301" stroke="url(#paint13_linear_785_4928)" stroke-width="1.08501" stroke-linecap="round" stroke-linejoin="round"/>
<path d="M116.137 -49.5166L114.598 -41.7816L114.927 -28.1543L115.85 -14.7417L116.076 -5.08628L115.483 1.96665L115.213 9.85878L114.624 17.6069L111.821 24.1824L108.358 33.983L107.5 49.029L110.123 65.6807L113.584 81.7167L117.037 97.886L120.82 114.017L125.127 128.884L129.935 139.527L134.703 144.16" stroke="url(#paint14_linear_785_4928)" stroke-width="1.08501" stroke-linecap="round" stroke-linejoin="round"/>
<path d="M143.773 140.799L144.239 140.642L146.435 140.084L151.157 138.319" stroke="url(#paint15_linear_785_4928)" stroke-width="1.08501" stroke-linecap="round" stroke-linejoin="round"/>
<path d="M46.8538 57.6303L53.9321 56.8151L63.1075 55.5965L74.9255 53.9003L89.9856 51.6547L107.501 49.029L124.953 46.4563L139.231 44.4091L149.874 42.7918L161.326 40.6657L176.157 37.673L190.398 34.7686L200.928 32.5885L211.935 30.1778L221.462 27.9519L228.377 26.1745L231.538 25.1111" stroke="url(#paint16_linear_785_4928)" stroke-width="1.08501" stroke-linecap="round" stroke-linejoin="round"/>
<path d="M231.102 0.446436L231.612 -6.38258L223.27 -17.5605L222.909 -18.2373L222.728 -18.4224L222.406 -19.1898L208.937 -26.6736L199.253 -30.7556L196.279 -32.2733" stroke="url(#paint17_linear_785_4928)" stroke-width="1.08501" stroke-linecap="round" stroke-linejoin="round"/>
<path d="M111.013 -2.39315L104.289 -3.6294L95.505 -7.64193" stroke="url(#paint18_linear_785_4928)" stroke-width="1.08501" stroke-linecap="round" stroke-linejoin="round"/>
<path d="M166 130.255L171.315 126.607L177.429 123.676L183.714 120.272L191.147 114.717L197.343 110.854L199.098 108.499L204.22 101.627L209.582 97.8329L214.804 87.5843L215.445 86.3361L219.665 83.1316L221.279 78.995L224.622 70.4383L226.54 67.768L227.992 62.6031L229.94 55.6564L230.29 54.4275" stroke="url(#paint19_linear_785_4928)" stroke-width="1.08501" stroke-linecap="round" stroke-linejoin="round"/>
<path d="M197.343 110.854L201.185 106.376L203.175 104.348L207.058 100.396L209.582 97.8333L212.505 93.9129L213.503 92.4061L218.56 84.7948L219.664 83.1321" stroke="url(#paint20_linear_785_4928)" stroke-width="1.08501" stroke-linecap="round" stroke-linejoin="round"/>
<path d="M123.409 -56.5855L120.082 -51.8288L122.221 -42.1075L118.204 -34.8703L114.927 -28.1545L112.109 -22.8002L109.333 -19.3605L106.281 -17.9317L102.857 -18.1375L95.3847 -14.6578L84.8725 -13.3627L76.0745 -7.36715L71.4561 3.57702L65.6153 14.4584L56.0692 25.7755L50.5261 40.6795L53.9316 56.8149L61.7937 70.9295L66.9058 84.5681L70.3997 99.2068L77.081 101.572L87.2565 102.715M87.2565 102.715L100.99 101.702L117.038 97.8859L132.898 91.0177L145.55 82.4914L155.999 77.7759L169.123 77.802L186.146 79.4288L201.838 78.9657L211.901 76.0791L219.628 73.2163L224.622 70.4386L227.673 56.5088L230.29 54.4278L231.081 42.1044L231.205 40.2479L228.377 26.1742L224.956 12.1829L218 -0.339355L207.102 -9.57261L201.052 -7.78579L194.638 -6.65719L187.434 -5.94649L179.061 -5.40981L168.216 -3.21241L155.7 1.19954L143.46 6.98651L132.892 12.1661L123.496 15.3417L114.624 17.6067L106.027 19.2671L96.1197 19.4221L86.9898 26.0437L77.6405 37.4955L74.925 53.9L78.9228 70.4509L83.4495 86.2282L87.2565 102.715ZM87.2565 102.715L91.5408 119.86L97.2902 136.198L105.112 148.514L114.725 152.607" stroke="url(#paint21_linear_785_4928)" stroke-width="1.08501" stroke-linecap="round" stroke-linejoin="round"/>
<path d="M159.889 133.63L161.758 129.469L161.735 119.029L160.082 104.78L157.899 90.4772L155.999 77.776L154.006 65.6545L151.934 54.0321L149.874 42.7917L147.492 31.9898L145.445 20.5792L143.46 6.98659L140.748 -6.2609L137.53 -16.3635L134.262 -26.3793L130.791 -37.5905L127.039 -48.9703L123.41 -56.5855" stroke="url(#paint22_linear_785_4928)" stroke-width="1.08501" stroke-linecap="round" stroke-linejoin="round"/>
<path d="M146.799 139.537L151.158 138.319L152.489 137.079" stroke="url(#paint23_linear_785_4928)" stroke-width="1.08501" stroke-linecap="round" stroke-linejoin="round"/>
<path d="M222.664 -18.3755L219.233 -15.8267L213.555 -12.5552L207.102 -9.57233L196.011 -17.0391L186.725 -25.4658L179.219 -37.547L170.513 -51.0508L163.17 -57.8509L158.944 -61.7658L156.52 -62.4409L156.29 -62.486L155.481 -62.7988L151.9 -64.0037L143.189 -66.769" stroke="url(#paint24_linear_785_4928)" stroke-width="1.08501" stroke-linecap="round" stroke-linejoin="round"/>
<path d="M147.587 139.2L151.157 138.319L152.41 137.111" stroke="url(#paint25_linear_785_4928)" stroke-width="1.08501" stroke-linecap="round" stroke-linejoin="round"/>
<path d="M153.193 136.774L153.227 133.223L151.978 123.261L149.901 109.588L147.645 95.5256" stroke="url(#paint26_linear_785_4928)" stroke-width="1.08501" stroke-linecap="round" stroke-linejoin="round"/>
<path d="M148.157 138.947L151.158 138.319L152.305 137.159" stroke="url(#paint27_linear_785_4928)" stroke-width="1.08501" stroke-linecap="round" stroke-linejoin="round"/>
<path d="M41.4339 70.3659L44.4608 70.4229L51.4161 81.7697L57.6471 92.7714L61.1233 92.8244L64.2325 93.8271L64.7252 95.1414L68.9147 106.309L70.7106 110.324L73.3501 118.149L74.2645 120.855L74.3233 121.025L75.6964 125.094L79.6342 130.491L87.5739 144.179L95.0079 147.658L99.2187 149.71L105.959 152.989" stroke="url(#paint28_linear_785_4928)" stroke-width="1.08501" stroke-linecap="round" stroke-linejoin="round"/>
<path d="M48.5333 81.8144L51.4171 81.7697L55.9996 81.3773" stroke="url(#paint29_linear_785_4928)" stroke-width="1.08501" stroke-linecap="round" stroke-linejoin="round"/>
<path d="M148.604 138.757L151.158 138.319L152.131 137.23" stroke="url(#paint30_linear_785_4928)" stroke-width="1.08501" stroke-linecap="round" stroke-linejoin="round"/>
<path d="M119.068 -54.2005L120.082 -51.8288L117.137 -46.7649L114.598 -41.7817L112.426 -37.2147L110.533 -33.3428L110.477 -32.6795L109.332 -19.3605L107.919 -8.93537L104.289 -3.62936L100.635 2.34657L99.6054 11.8489L96.1195 19.4221" stroke="url(#paint31_linear_785_4928)" stroke-width="1.08501" stroke-linecap="round" stroke-linejoin="round"/>
<path d="M55.5132 92.5628L57.648 92.771L64.4988 103.218L66.7474 104.169L70.9884 113.48L71.0461 113.608L72.4254 116.368L73.8146 119.893" stroke="url(#paint32_linear_785_4928)" stroke-width="1.08501" stroke-linecap="round" stroke-linejoin="round"/>
<path d="M231.612 -6.38306L230.081 -5.33186L225.218 -3.15833L217.999 -0.339576L209.474 2.62831L200.07 5.5773L190.477 8.12037L181.374 9.65672L169.984 12.4322L157.243 16.6064L145.444 20.5789L134.862 22.7318L123.695 23.244L111.82 24.182L99.6995 25.2579L92.5311 35.6322L89.9847 51.6542L93.0311 68.7501L97.1527 85.0401L100.989 101.702L105.249 118.701L110.571 134.499L117.169 146.074" stroke="url(#paint33_linear_785_4928)" stroke-width="1.08501" stroke-linecap="round" stroke-linejoin="round"/>
<path d="M232.731 9.63619L231.151 10.2277L224.956 12.1831L215.756 14.9235L205.09 17.9303L193.998 20.8295L184.189 22.8392L171.839 25.8554L158.66 29.5039L147.492 31.9899L136.918 32.7135L123.8 32.9625L108.358 33.9831L92.531 35.6326L77.6401 37.4957L63.8202 39.2372L50.5256 40.6797L38.2298 41.8212L29.5183 42.7332L23.3378 43.2885L20.5351 43.4933" stroke="url(#paint34_linear_785_4928)" stroke-width="1.08501" stroke-linecap="round" stroke-linejoin="round"/>
<path d="M149.65 138.304L151.158 138.319" stroke="url(#paint35_linear_785_4928)" stroke-width="1.08501" stroke-linecap="round" stroke-linejoin="round"/>
<path d="M63.3029 102.394L64.4982 103.218L65.9814 105.564L70.8012 113.193" stroke="url(#paint36_linear_785_4928)" stroke-width="1.08501" stroke-linecap="round" stroke-linejoin="round"/>
<path d="M32.3444 57.9648L33.7183 58.3199L33.8655 58.4808L34.5112 59.2113L44.4609 70.4228L49.5053 70.0659L53.9302 70.0182" stroke="url(#paint37_linear_785_4928)" stroke-width="1.08501" stroke-linecap="round" stroke-linejoin="round"/>
<path d="M141.566 142.289L142.789 141.788L142.968 141.71L146.575 140.199L151.157 138.319" stroke="url(#paint38_linear_785_4928)" stroke-width="1.08501" stroke-linecap="round" stroke-linejoin="round"/>
<path d="M149.996 138.156L151.157 138.319" stroke="url(#paint39_linear_785_4928)" stroke-width="1.08501" stroke-linecap="round" stroke-linejoin="round"/>
<path d="M150.37 137.991L151.157 138.319" stroke="url(#paint40_linear_785_4928)" stroke-width="1.08501" stroke-linecap="round" stroke-linejoin="round"/>
<path d="M185.46 -40.7939L184.809 -40.4257L182.578 -39.1119L179.22 -37.5471L175.127 -36.386L170.444 -35.9883L165.033 -36.1994L158.547 -36.1023L150.948 -34.8209L142.615 -31.7474L134.262 -26.3791L126.838 -19.0387L120.91 -11.2198L121.697 -2.57125L122.681 6.63213L123.496 15.342L123.696 23.2444L123.8 32.9625L124.953 46.4563L127.407 61.511L130.126 76.245L132.898 91.0179L135.799 105.517L138.772 119.062L141.702 130.731L144.279 138.291L146.128 139.825" stroke="url(#paint41_linear_785_4928)" stroke-width="1.08501" stroke-linecap="round" stroke-linejoin="round"/>
<path d="M151.158 138.319L151.176 137.644" stroke="url(#paint42_linear_785_4928)" stroke-width="1.08501" stroke-linecap="round" stroke-linejoin="round"/>
<path d="M150.767 137.821L151.157 138.319" stroke="url(#paint43_linear_785_4928)" stroke-width="1.08501" stroke-linecap="round" stroke-linejoin="round"/>
<path d="M138.718 142.897L139.009 142.914L139.653 142.859L140.511 142.648L141.566 142.289L142.788 141.782L142.795 141.787L146.38 140.04L151.157 138.319" stroke="url(#paint44_linear_785_4928)" stroke-width="1.08501" stroke-linecap="round" stroke-linejoin="round"/>
<path d="M138.773 142.87L139.009 142.914L142.358 141.651L146.366 140.03L151.157 138.319" stroke="url(#paint45_linear_785_4928)" stroke-width="1.08501" stroke-linecap="round" stroke-linejoin="round"/>
<path d="M27.7525 51.604L33.7192 58.3195L37.6229 58.276L37.7389 58.3943L49.5061 70.0655L55.9995 81.3767L59.9693 81.6519L62.6868 83.0691L66.9059 84.5678L73.5171 85.8111L83.4495 86.2279L97.1531 85.04L113.584 81.7163L130.125 76.2444L143.488 69.7874L154.005 65.6541L167.228 64.9196L185.065 65.1849L201.757 63.9344L212.597 61.2763L221.542 58.8068L227.673 56.5085" stroke="url(#paint46_linear_785_4928)" stroke-width="1.08501" stroke-linecap="round" stroke-linejoin="round"/>
<path d="M102.395 -23.9135L102.136 -23.8097L102.03 -23.7978L101.996 -23.786L93.6747 -21.1043L93.0078 -21.0394L87.6379 -21.6833L81.6031 -22.6405L80.6578 -22.6962L63.8671 -23.6907L47.2544 -18.8185L36.0751 -7.01467L28.69 8.09937L24.6271 24.9421L29.5189 42.7332L42.1806 58.0202L46.8535 57.6304L48.755 60.0376L57.0683 70.5486L61.7938 70.9297L68.7375 71.0189L78.9229 70.4511L93.0316 68.7506L110.124 65.6808L127.407 61.511L141.41 57.1651L151.934 54.0323L164.444 52.3448L181.549 50.7364L197.88 48.4855L208.984 46.0764L219.167 43.8352L226.912 41.8513L231.205 40.2481L231.606 39.1483L231.538 25.1111L231.303 15.9368L231.152 10.2277L225.219 -3.15788L213.555 -12.5552L201.249 -19.7203L190.979 -27.764L182.577 -39.1119L173.838 -50.2284L172.973 -51.3297L168.607 -54.651L167.787 -55.2798L162.248 -59.5063L160.691 -60.6942L158.944 -61.7659L156.979 -62.3868L156.224 -62.5588L152.845 -62.8502L151.392 -63.3899L146.834 -65.083L140.746 -67.3449L137.776 -67.2437L134.387 -66.1474" stroke="url(#paint47_linear_785_4928)" stroke-width="1.08501" stroke-linecap="round" stroke-linejoin="round"/>
<path d="M231.303 15.9368L232.109 12.375L232.731 9.63618L231.102 0.446394L230.081 -5.33142L219.233 -15.8268L205.97 -22.9738L194.443 -30.3608L184.808 -40.4257L180.465 -44.8487" stroke="url(#paint48_linear_785_4928)" stroke-width="1.08501" stroke-linecap="round" stroke-linejoin="round"/>
<path d="M231.082 42.1047L231.316 40.7992L231.606 39.1484" stroke="url(#paint49_linear_785_4928)" stroke-width="1.08501" stroke-linecap="round" stroke-linejoin="round"/>
<path d="M221.279 78.9955L224.027 73.125L225.526 69.9318L226.539 67.7686" stroke="url(#paint50_linear_785_4928)" stroke-width="1.08501" stroke-linecap="round" stroke-linejoin="round"/>
<path d="M134.868 144.324L138.687 142.891" stroke="url(#paint51_linear_785_4928)" stroke-width="1.08501" stroke-linecap="round" stroke-linejoin="round"/>
<path d="M148.978 138.592L149.32 138.45L151.157 138.319L151.879 137.339" stroke="url(#paint52_linear_785_4928)" stroke-width="1.08501" stroke-linecap="round" stroke-linejoin="round"/>
<path d="M149.32 138.45L149.649 138.304L149.996 138.156L150.37 137.99L150.767 137.821L151.175 137.644L151.556 137.484" stroke="url(#paint53_linear_785_4928)" stroke-width="1.08501" stroke-linecap="round" stroke-linejoin="round"/>
</g>
<defs>
<linearGradient id="paint0_linear_785_4928" x1="203.855" y1="-78.4391" x2="132.12" y2="-59.9839" gradientUnits="userSpaceOnUse">
<stop stop-color="#DD38DD"/>
<stop offset="1" stop-color="#0BA5EC"/>
</linearGradient>
<linearGradient id="paint1_linear_785_4928" x1="179.476" y1="116.023" x2="131.218" y2="157.047" gradientUnits="userSpaceOnUse">
<stop stop-color="#DD38DD"/>
<stop offset="1" stop-color="#0BA5EC"/>
</linearGradient>
<linearGradient id="paint2_linear_785_4928" x1="88.6329" y1="-6.26123" x2="26.2913" y2="39.9864" gradientUnits="userSpaceOnUse">
<stop stop-color="#DD38DD"/>
<stop offset="1" stop-color="#0BA5EC"/>
</linearGradient>
<linearGradient id="paint3_linear_785_4928" x1="192.769" y1="-76.0387" x2="-10.1171" y2="-7.70383" gradientUnits="userSpaceOnUse">
<stop stop-color="#DD38DD"/>
<stop offset="1" stop-color="#0BA5EC"/>
</linearGradient>
<linearGradient id="paint4_linear_785_4928" x1="66.5748" y1="79.5854" x2="54.9583" y2="82.0957" gradientUnits="userSpaceOnUse">
<stop stop-color="#DD38DD"/>
<stop offset="1" stop-color="#0BA5EC"/>
</linearGradient>
<linearGradient id="paint5_linear_785_4928" x1="150.705" y1="138.395" x2="143.87" y2="145.913" gradientUnits="userSpaceOnUse">
<stop stop-color="#DD38DD"/>
<stop offset="1" stop-color="#0BA5EC"/>
</linearGradient>
<linearGradient id="paint6_linear_785_4928" x1="150.738" y1="138.39" x2="144.114" y2="145.332" gradientUnits="userSpaceOnUse">
<stop stop-color="#DD38DD"/>
<stop offset="1" stop-color="#0BA5EC"/>
</linearGradient>
<linearGradient id="paint7_linear_785_4928" x1="188.624" y1="-39.3203" x2="15.04" y2="32.092" gradientUnits="userSpaceOnUse">
<stop stop-color="#DD38DD"/>
<stop offset="1" stop-color="#0BA5EC"/>
</linearGradient>
<linearGradient id="paint8_linear_785_4928" x1="138.535" y1="142.899" x2="135.471" y2="146.556" gradientUnits="userSpaceOnUse">
<stop stop-color="#DD38DD"/>
<stop offset="1" stop-color="#0BA5EC"/>
</linearGradient>
<linearGradient id="paint9_linear_785_4928" x1="161.085" y1="-69.0932" x2="127.61" y2="-62.4404" gradientUnits="userSpaceOnUse">
<stop stop-color="#DD38DD"/>
<stop offset="1" stop-color="#0BA5EC"/>
</linearGradient>
<linearGradient id="paint10_linear_785_4928" x1="150.746" y1="138.388" x2="145.504" y2="145.213" gradientUnits="userSpaceOnUse">
<stop stop-color="#DD38DD"/>
<stop offset="1" stop-color="#0BA5EC"/>
</linearGradient>
<linearGradient id="paint11_linear_785_4928" x1="65.0767" y1="102.094" x2="63.1614" y2="102.615" gradientUnits="userSpaceOnUse">
<stop stop-color="#DD38DD"/>
<stop offset="1" stop-color="#0BA5EC"/>
</linearGradient>
<linearGradient id="paint12_linear_785_4928" x1="92.2144" y1="-7.08461" x2="23.8735" y2="42.3156" gradientUnits="userSpaceOnUse">
<stop stop-color="#DD38DD"/>
<stop offset="1" stop-color="#0BA5EC"/>
</linearGradient>
<linearGradient id="paint13_linear_785_4928" x1="97.3718" y1="-23.4708" x2="25.8018" y2="1.27343" gradientUnits="userSpaceOnUse">
<stop stop-color="#DD38DD"/>
<stop offset="1" stop-color="#0BA5EC"/>
</linearGradient>
<linearGradient id="paint14_linear_785_4928" x1="115.197" y1="-49.3573" x2="88.822" y2="-44.304" gradientUnits="userSpaceOnUse">
<stop stop-color="#DD38DD"/>
<stop offset="1" stop-color="#0BA5EC"/>
</linearGradient>
<linearGradient id="paint15_linear_785_4928" x1="150.87" y1="138.367" x2="147.708" y2="143.062" gradientUnits="userSpaceOnUse">
<stop stop-color="#DD38DD"/>
<stop offset="1" stop-color="#0BA5EC"/>
</linearGradient>
<linearGradient id="paint16_linear_785_4928" x1="224.535" y1="26.2976" x2="225.658" y2="50.5228" gradientUnits="userSpaceOnUse">
<stop stop-color="#DD38DD"/>
<stop offset="1" stop-color="#0BA5EC"/>
</linearGradient>
<linearGradient id="paint17_linear_785_4928" x1="225.223" y1="-37.1771" x2="194.385" y2="-27.6464" gradientUnits="userSpaceOnUse">
<stop stop-color="#DD38DD"/>
<stop offset="1" stop-color="#0BA5EC"/>
</linearGradient>
<linearGradient id="paint18_linear_785_4928" x1="109.178" y1="-9.95836" x2="96.0433" y2="-3.35256" gradientUnits="userSpaceOnUse">
<stop stop-color="#DD38DD"/>
<stop offset="1" stop-color="#0BA5EC"/>
</linearGradient>
<linearGradient id="paint19_linear_785_4928" x1="227.45" y1="54.9087" x2="152.981" y2="83.1129" gradientUnits="userSpaceOnUse">
<stop stop-color="#DD38DD"/>
<stop offset="1" stop-color="#0BA5EC"/>
</linearGradient>
<linearGradient id="paint20_linear_785_4928" x1="218.669" y1="83.3006" x2="192.446" y2="92.9493" gradientUnits="userSpaceOnUse">
<stop stop-color="#DD38DD"/>
<stop offset="1" stop-color="#0BA5EC"/>
</linearGradient>
<linearGradient id="paint21_linear_785_4928" x1="205.593" y1="-70.5093" x2="26.3925" y2="-12.9227" gradientUnits="userSpaceOnUse">
<stop stop-color="#DD38DD"/>
<stop offset="1" stop-color="#0BA5EC"/>
</linearGradient>
<linearGradient id="paint22_linear_785_4928" x1="132.656" y1="-58.1519" x2="122.416" y2="-56.3292" gradientUnits="userSpaceOnUse">
<stop stop-color="#DD38DD"/>
<stop offset="1" stop-color="#0BA5EC"/>
</linearGradient>
<linearGradient id="paint23_linear_785_4928" x1="152.264" y1="137.117" x2="148.419" y2="140.794" gradientUnits="userSpaceOnUse">
<stop stop-color="#DD38DD"/>
<stop offset="1" stop-color="#0BA5EC"/>
</linearGradient>
<linearGradient id="paint24_linear_785_4928" x1="209.852" y1="-78.0632" x2="140.186" y2="-53.4497" gradientUnits="userSpaceOnUse">
<stop stop-color="#DD38DD"/>
<stop offset="1" stop-color="#0BA5EC"/>
</linearGradient>
<linearGradient id="paint25_linear_785_4928" x1="152.22" y1="137.143" x2="148.949" y2="140.258" gradientUnits="userSpaceOnUse">
<stop stop-color="#DD38DD"/>
<stop offset="1" stop-color="#0BA5EC"/>
</linearGradient>
<linearGradient id="paint26_linear_785_4928" x1="147.592" y1="95.5346" x2="146.1" y2="95.7961" gradientUnits="userSpaceOnUse">
<stop stop-color="#DD38DD"/>
<stop offset="1" stop-color="#0BA5EC"/>
</linearGradient>
<linearGradient id="paint27_linear_785_4928" x1="152.141" y1="137.187" x2="149.343" y2="139.868" gradientUnits="userSpaceOnUse">
<stop stop-color="#DD38DD"/>
<stop offset="1" stop-color="#0BA5EC"/>
</linearGradient>
<linearGradient id="paint28_linear_785_4928" x1="88.6903" y1="62.3596" x2="37.4813" y2="75.819" gradientUnits="userSpaceOnUse">
<stop stop-color="#DD38DD"/>
<stop offset="1" stop-color="#0BA5EC"/>
</linearGradient>
<linearGradient id="paint29_linear_785_4928" x1="55.5856" y1="80.6195" x2="53.8072" y2="84.6268" gradientUnits="userSpaceOnUse">
<stop stop-color="#DD38DD"/>
<stop offset="1" stop-color="#0BA5EC"/>
</linearGradient>
<linearGradient id="paint30_linear_785_4928" x1="151.991" y1="137.254" x2="149.6" y2="139.531" gradientUnits="userSpaceOnUse">
<stop stop-color="#DD38DD"/>
<stop offset="1" stop-color="#0BA5EC"/>
</linearGradient>
<linearGradient id="paint31_linear_785_4928" x1="118.336" y1="-54.0765" x2="81.7669" y2="-44.6147" gradientUnits="userSpaceOnUse">
<stop stop-color="#DD38DD"/>
<stop offset="1" stop-color="#0BA5EC"/>
</linearGradient>
<linearGradient id="paint32_linear_785_4928" x1="68.2993" y1="90.3966" x2="54.3739" y2="93.8351" gradientUnits="userSpaceOnUse">
<stop stop-color="#DD38DD"/>
<stop offset="1" stop-color="#0BA5EC"/>
</linearGradient>
<linearGradient id="paint33_linear_785_4928" x1="226.035" y1="-5.43817" x2="79.1559" y2="48.8628" gradientUnits="userSpaceOnUse">
<stop stop-color="#DD38DD"/>
<stop offset="1" stop-color="#0BA5EC"/>
</linearGradient>
<linearGradient id="paint34_linear_785_4928" x1="224.361" y1="8.96063" x2="218.083" y2="69.903" gradientUnits="userSpaceOnUse">
<stop stop-color="#DD38DD"/>
<stop offset="1" stop-color="#0BA5EC"/>
</linearGradient>
<linearGradient id="paint35_linear_785_4928" x1="151.058" y1="138.066" x2="150.347" y2="138.987" gradientUnits="userSpaceOnUse">
<stop stop-color="#DD38DD"/>
<stop offset="1" stop-color="#0BA5EC"/>
</linearGradient>
<linearGradient id="paint36_linear_785_4928" x1="68.6047" y1="101.496" x2="62.8368" y2="102.941" gradientUnits="userSpaceOnUse">
<stop stop-color="#DD38DD"/>
<stop offset="1" stop-color="#0BA5EC"/>
</linearGradient>
<linearGradient id="paint37_linear_785_4928" x1="50.6231" y1="54.868" x2="31.8539" y2="62.1689" gradientUnits="userSpaceOnUse">
<stop stop-color="#DD38DD"/>
<stop offset="1" stop-color="#0BA5EC"/>
</linearGradient>
<linearGradient id="paint38_linear_785_4928" x1="150.779" y1="138.383" x2="144.655" y2="144.624" gradientUnits="userSpaceOnUse">
<stop stop-color="#DD38DD"/>
<stop offset="1" stop-color="#0BA5EC"/>
</linearGradient>
<linearGradient id="paint39_linear_785_4928" x1="151.056" y1="137.976" x2="150.213" y2="138.615" gradientUnits="userSpaceOnUse">
<stop stop-color="#DD38DD"/>
<stop offset="1" stop-color="#0BA5EC"/>
</linearGradient>
<linearGradient id="paint40_linear_785_4928" x1="151.054" y1="137.875" x2="150.375" y2="138.181" gradientUnits="userSpaceOnUse">
<stop stop-color="#DD38DD"/>
<stop offset="1" stop-color="#0BA5EC"/>
</linearGradient>
<linearGradient id="paint41_linear_785_4928" x1="182.684" y1="-40.3236" x2="105.832" y2="-21.5602" gradientUnits="userSpaceOnUse">
<stop stop-color="#DD38DD"/>
<stop offset="1" stop-color="#0BA5EC"/>
</linearGradient>
<linearGradient id="paint42_linear_785_4928" x1="151.171" y1="137.645" x2="151.035" y2="137.672" gradientUnits="userSpaceOnUse">
<stop stop-color="#DD38DD"/>
<stop offset="1" stop-color="#0BA5EC"/>
</linearGradient>
<linearGradient id="paint43_linear_785_4928" x1="151.053" y1="137.773" x2="150.743" y2="137.855" gradientUnits="userSpaceOnUse">
<stop stop-color="#DD38DD"/>
<stop offset="1" stop-color="#0BA5EC"/>
</linearGradient>
<linearGradient id="paint44_linear_785_4928" x1="150.671" y1="138.401" x2="143.813" y2="146.514" gradientUnits="userSpaceOnUse">
<stop stop-color="#DD38DD"/>
<stop offset="1" stop-color="#0BA5EC"/>
</linearGradient>
<linearGradient id="paint45_linear_785_4928" x1="150.673" y1="138.401" x2="143.959" y2="146.476" gradientUnits="userSpaceOnUse">
<stop stop-color="#DD38DD"/>
<stop offset="1" stop-color="#0BA5EC"/>
</linearGradient>
<linearGradient id="paint46_linear_785_4928" x1="213.956" y1="20.057" x2="95.8172" y2="141.221" gradientUnits="userSpaceOnUse">
<stop stop-color="#DD38DD"/>
<stop offset="1" stop-color="#0BA5EC"/>
</linearGradient>
<linearGradient id="paint47_linear_785_4928" x1="208.091" y1="-79.1565" x2="15.1851" y2="9.56945" gradientUnits="userSpaceOnUse">
<stop stop-color="#DD38DD"/>
<stop offset="1" stop-color="#0BA5EC"/>
</linearGradient>
<linearGradient id="paint48_linear_785_4928" x1="220.714" y1="-51.6678" x2="177.308" y2="-39.6477" gradientUnits="userSpaceOnUse">
<stop stop-color="#DD38DD"/>
<stop offset="1" stop-color="#0BA5EC"/>
</linearGradient>
<linearGradient id="paint49_linear_785_4928" x1="231.569" y1="39.1548" x2="230.519" y2="39.3973" gradientUnits="userSpaceOnUse">
<stop stop-color="#DD38DD"/>
<stop offset="1" stop-color="#0BA5EC"/>
</linearGradient>
<linearGradient id="paint50_linear_785_4928" x1="226.275" y1="67.8132" x2="219.085" y2="69.8971" gradientUnits="userSpaceOnUse">
<stop stop-color="#DD38DD"/>
<stop offset="1" stop-color="#0BA5EC"/>
</linearGradient>
<linearGradient id="paint51_linear_785_4928" x1="138.537" y1="142.917" x2="136.458" y2="145.41" gradientUnits="userSpaceOnUse">
<stop stop-color="#DD38DD"/>
<stop offset="1" stop-color="#0BA5EC"/>
</linearGradient>
<linearGradient id="paint52_linear_785_4928" x1="151.764" y1="137.358" x2="149.633" y2="139.186" gradientUnits="userSpaceOnUse">
<stop stop-color="#DD38DD"/>
<stop offset="1" stop-color="#0BA5EC"/>
</linearGradient>
<linearGradient id="paint53_linear_785_4928" x1="151.467" y1="137.499" x2="149.954" y2="138.943" gradientUnits="userSpaceOnUse">
<stop stop-color="#DD38DD"/>
<stop offset="1" stop-color="#0BA5EC"/>
</linearGradient>
</defs>
</svg>
